<svg height="512" viewBox="0 0 505.366 418.851" width="512" xmlns="http://www.w3.org/2000/svg"><g id="Layer_20" data-name="Layer 20"><path d="m499.366 96.615v316.235h-493.366v-316.235l246.677 217.607z" fill="#fdc00f"/><path d="m499.366 96.62v44.158l-230.155 200.678a14.575 14.575 0 0 1 -19.263-.094l-243.948-216.915v-27.827l246.678 217.6z" fill="#efac06"/><path d="m499.366 418.851h-493.366a6 6 0 0 1 -6-6v-316.236a6 6 0 0 1 9.969-4.5l242.708 214.107 242.723-214.106a6 6 0 0 1 9.969 4.5v316.235a6 6 0 0 1 -6.003 6zm-487.366-12h481.366v-296.942l-236.72 208.813a6 6 0 0 1 -7.938 0l-236.708-208.813z"/><path d="m403.744 214.282h12v239.018h-12z" transform="matrix(.662 -.75 .75 .662 -111.631 420.245)"/><path d="m-23.892 327.79h239.018v12h-239.018z" transform="matrix(.75 -.662 .662 .75 -196.902 146.73)"/><path d="m499.366 93.135v3.485l-246.688 217.6-246.678-217.6v-3.485z" fill="#fdc00f"/><path d="m252.678 320.221a5.982 5.982 0 0 1 -3.969-1.5l-246.678-217.601a6 6 0 0 1 -2.031-4.5v-3.485a6 6 0 0 1 6-6h493.366a6 6 0 0 1 6 6v3.485a6 6 0 0 1 -2.031 4.5l-246.688 217.6a5.986 5.986 0 0 1 -3.969 1.501zm-234.757-221.086 234.757 207.085 234.767-207.085z"/><path d="m293.643 0h12v46.679h-12z"/><path d="m346.953 18.927h46.679v12h-46.679z" transform="matrix(.362 -.932 .932 .362 212.838 361.001)"/><path d="m416.69 21.609h46.679v12h-46.679z" transform="matrix(.577 -.817 .817 .577 163.763 371.215)"/></g></svg>